<svg xmlns="http://www.w3.org/2000/svg" viewBox="0 0 80 16">
	<path style="fill:#326FFF;" d="M7.8,11H7.6L4,1.7C3.8,0.9,3,0.4,2.2,0.4H1.9c-1.4,0-2.3,1.4-1.8,2.7L5,14.4c0.3,0.7,1,1.2,1.8,1.2 h1.6c0.8,0,1.5-0.5,1.8-1.2l4.3-11.3C15,1.8,14,0.4,12.7,0.4c-0.8,0-1.6,0.5-1.8,1.3L7.8,11z"/>

	<path style="fill:#326FFF;" d="M29.5,2.2c-0.7-0.7-1.5-1.2-2.5-1.6c-1-0.4-2.1-0.6-3.4-0.6c-1.2,0-2.3,0.2-3.3,0.5 c-1,0.4-1.8,0.9-2.5,1.6c-0.7,0.7-1.2,1.5-1.6,2.5c-0.4,1-0.6,2.1-0.6,3.4c0,1.2,0.2,2.3,0.5,3.3c0.4,1,0.9,1.8,1.6,2.5 c0.7,0.7,1.5,1.2,2.5,1.6c1,0.4,2.1,0.6,3.4,0.6c1.2,0,2.3-0.2,3.3-0.5c1-0.4,1.8-0.9,2.5-1.6c0.7-0.7,1.2-1.5,1.6-2.5 c0.4-1,0.6-2.1,0.6-3.4c0-1.2-0.2-2.3-0.5-3.3C30.7,3.7,30.2,2.9,29.5,2.2z M26.4,11.5c-0.7,0.7-1.7,1.1-2.9,1.1 c-0.6,0-1.2-0.1-1.7-0.4c-0.5-0.2-0.9-0.6-1.2-1c-0.3-0.4-0.6-0.9-0.8-1.5c-0.2-0.6-0.3-1.2-0.3-1.8c0-0.8,0.1-1.5,0.3-2.1 c0.2-0.6,0.5-1.1,0.8-1.5c0.4-0.4,0.8-0.7,1.2-0.8c0.5-0.2,1-0.3,1.6-0.3c1.3,0,2.3,0.4,2.9,1.3c0.7,0.9,1,2,1,3.4 C27.5,9.6,27.1,10.8,26.4,11.5z"/>

	<path style="fill:#326FFF;" d="M45.5,0.4h-1.4c-0.4,0-0.7,0.2-0.9,0.5l-2.3,3.2c-0.5,0.7-1.5,0.7-1.9,0L36.8,1 c-0.2-0.3-0.6-0.5-0.9-0.5h-1.8c-1,0-1.5,1.1-0.9,1.8l3.5,4.8c0.3,0.4,0.3,0.9,0,1.4l-3.8,5.3c-0.6,0.8,0,1.8,0.9,1.8h1.4 c0.4,0,0.7-0.2,0.9-0.5l2.6-3.7c0.5-0.7,1.4-0.7,1.9,0l2.6,3.7c0.2,0.3,0.6,0.5,1,0.5h1.8c0.9,0,1.5-1,1-1.8l-3.8-5.4 c-0.3-0.4-0.3-0.9,0-1.3l3.4-4.8C47,1.5,46.5,0.4,45.5,0.4z"/>

	<path style="fill:#326FFF;" d="M62.4,11V1.2c0-0.4-0.3-0.8-0.8-0.8h-4.1c-0.4,0-0.8,0.3-0.8,0.8V3c0,0.4,0.3,0.8,0.8,0.8h0.3 c0.4,0,0.8,0.3,0.8,0.8V10c0,0.1,0,0.2-0.1,0.3c-0.3,0.6-0.7,1.1-1.2,1.5c-0.6,0.4-1.3,0.7-2,0.7c-0.8,0-1.4-0.3-1.8-0.8 C53.1,11.2,53,10.3,53,9V1.2c0-0.4-0.3-0.8-0.8-0.8h-4.1c-0.4,0-0.8,0.3-0.8,0.8V3c0,0.4,0.3,0.8,0.8,0.8c0.4,0,0.8,0.3,0.8,0.8v5.3 c0,1.2,0.2,2.2,0.4,3c0.2,0.8,0.6,1.4,1,1.9c0.4,0.5,1,0.8,1.6,1c0.6,0.2,1.3,0.3,2.1,0.3c1.1,0,2.2-0.3,3.1-0.8 c0.9-0.5,1.6-1.2,2.1-1.9h0.1l0.5,1.8c0.1,0.3,0.4,0.5,0.7,0.5H64c0.4,0,0.8-0.3,0.8-0.8V13c0-0.4-0.3-0.8-0.8-0.8h-0.8 c-0.4,0-0.8-0.3-0.8-0.8L62.4,11L62.4,11z"/>

	<path style="fill:#326FFF;" d="M78.5,8.9c-0.5-0.6-1.1-1-1.8-1.4c-0.7-0.4-1.5-0.6-2.4-0.9c-0.9-0.2-1.7-0.4-2.4-0.6 c-0.7-0.2-1.3-0.4-1.8-0.6c-0.5-0.2-0.7-0.5-0.7-0.9c0-0.5,0.3-0.8,0.8-1c0.5-0.2,1.2-0.3,2-0.3c0.5,0,0.9,0.1,1.4,0.1 c0.5,0.1,0.9,0.2,1.4,0.4s0.8,0.3,1.2,0.5c0,0,0,0,0.1,0c0.6,0.3,1.3,0.1,1.6-0.4l0.4-0.7c0.4-0.6,0.2-1.3-0.4-1.7c0,0,0,0,0,0 C77.5,1.2,77,1,76.4,0.8c-0.6-0.2-1.2-0.4-2-0.5C73.7,0.1,72.9,0,71.9,0c-0.9,0-1.8,0.1-2.6,0.3c-0.8,0.2-1.5,0.5-2,0.9 c-0.6,0.4-1,0.9-1.4,1.4c-0.3,0.6-0.5,1.2-0.5,2c0,0.9,0.2,1.7,0.7,2.2c0.5,0.6,1.1,1,1.8,1.4c0.7,0.4,1.5,0.7,2.4,0.9 c0.9,0.2,1.7,0.4,2.4,0.6c0.7,0.2,1.3,0.4,1.8,0.7c0.5,0.2,0.7,0.6,0.7,1c0,0.5-0.2,0.9-0.7,1.1c-0.5,0.2-1,0.3-1.7,0.3 c-0.6,0-1.2-0.1-1.8-0.2c-0.6-0.1-1.2-0.3-1.7-0.6c-0.5-0.2-1-0.5-1.5-0.7c0,0,0,0,0,0c-0.6-0.4-1.3-0.2-1.7,0.4l-0.5,0.8 c-0.4,0.6-0.2,1.3,0.4,1.7c0.6,0.4,1.3,0.7,2.1,1.1c1.3,0.5,2.8,0.8,4.5,0.8c2.2,0,3.9-0.4,5-1.3c1.1-0.9,1.7-2.1,1.7-3.6 C79.2,10.2,78.9,9.4,78.5,8.9z"/>
</svg>
